<svg width="58" height="15" viewBox="0 0 58 15" fill="none" xmlns="http://www.w3.org/2000/svg">
<path d="M52.7728 14.9162C49.6041 14.9162 47.546 12.8072 47.546 9.30226C47.546 5.81773 49.6245 3.6781 52.7728 3.6781C55.9211 3.6781 57.9996 5.80754 57.9996 9.30226C57.9996 12.8072 55.9415 14.9162 52.7728 14.9162ZM52.7728 12.9091C54.3826 12.9091 55.4219 11.6049 55.4219 9.30226C55.4219 7.00981 54.3826 5.69546 52.7728 5.69546C51.1732 5.69546 50.1238 7.00981 50.1238 9.30226C50.1238 11.6049 51.163 12.9091 52.7728 12.9091Z" fill="#675DFF"/>
<path d="M30.7829 14.7023C30.5874 14.7023 30.429 14.5438 30.429 14.3483V4.25624C30.429 4.06074 30.5874 3.90225 30.7829 3.90225H32.5101C32.7056 3.90225 32.8641 4.06074 32.8641 4.25624V5.7469C32.8641 5.76351 32.8775 5.77697 32.8941 5.77697C32.9067 5.77697 32.9179 5.76912 32.9224 5.75739C33.3956 4.51517 34.5325 3.69848 35.992 3.69848C37.5089 3.69848 38.5942 4.47133 38.9988 5.83771C39.0042 5.8559 39.0209 5.86867 39.0399 5.86867C39.0574 5.86867 39.0732 5.85782 39.0797 5.84153C39.6061 4.52264 40.883 3.69848 42.4312 3.69848C44.5607 3.69848 45.9565 5.13509 45.9565 7.29509V14.3483C45.9565 14.5438 45.798 14.7023 45.6025 14.7023H43.7735C43.578 14.7023 43.4195 14.5438 43.4195 14.3483V7.9166C43.4195 6.59207 42.7267 5.83811 41.4837 5.83811C40.261 5.83811 39.4256 6.73471 39.4256 8.02868V14.3483C39.4256 14.5438 39.2671 14.7023 39.0716 14.7023H37.3139C37.1184 14.7023 36.9599 14.5438 36.9599 14.3483V7.78415C36.9599 6.58188 36.2263 5.83811 35.0444 5.83811C33.8218 5.83811 32.9659 6.78565 32.9659 8.08981V14.3483C32.9659 14.5438 32.8075 14.7023 32.612 14.7023H30.7829Z" fill="#675DFF"/>
<path d="M23.2867 12.96C24.7233 12.96 25.8746 12.0023 25.8746 10.6981V10.2491C25.8746 10.0451 25.7027 9.88336 25.499 9.89582L23.3784 10.0257C22.1558 10.1072 21.4528 10.6574 21.4528 11.5132C21.4528 12.3996 22.1863 12.96 23.2867 12.96ZM22.5226 14.8755C20.4339 14.8755 18.9158 13.5611 18.9158 11.6151C18.9158 9.69962 20.3931 8.5483 23.0218 8.38528L25.5409 8.24133C25.7282 8.23063 25.8746 8.07558 25.8746 7.88792V7.44792C25.8746 6.31697 25.1105 5.6649 23.8573 5.6649C22.7879 5.6649 22.0651 6.12439 21.8037 6.85695C21.7462 7.01807 21.6035 7.14226 21.4324 7.14226H19.7485C19.5452 7.14226 19.3819 6.97097 19.4141 6.77031C19.706 4.94942 21.3804 3.6781 23.9592 3.6781C26.6388 3.6781 28.3811 5.09433 28.3811 7.26452V14.3483C28.3811 14.5438 28.2226 14.7023 28.0271 14.7023H26.2898C26.0943 14.7023 25.9358 14.5438 25.9358 14.3483V13.0122C25.9358 12.9946 25.9215 12.9804 25.904 12.9804C25.8922 12.9804 25.8814 12.9869 25.8758 12.9973C25.2503 14.159 23.9016 14.8755 22.5226 14.8755Z" fill="#675DFF"/>
<path d="M15.0006 14.7023C14.8051 14.7023 14.6466 14.5438 14.6466 14.3483V0.353984C14.6466 0.158484 14.8051 0 15.0006 0H16.8296C17.0251 0 17.1836 0.158484 17.1836 0.353984V14.3483C17.1836 14.5438 17.0251 14.7023 16.8296 14.7023H15.0006Z" fill="#675DFF"/>
<path d="M7.78437 0C7.93419 8.8253e-06 8.06821 0.0941789 8.11835 0.235352L13.0832 14.2295C13.1649 14.4598 12.9944 14.7019 12.7502 14.7021H10.7355C10.5828 14.7021 10.4474 14.6041 10.3996 14.459L9.30683 11.1455C9.25903 11.0006 9.12349 10.9025 8.97089 10.9023H4.07245C3.91967 10.9023 3.78436 11.0004 3.73652 11.1455L2.64277 14.459C2.59492 14.6041 2.45961 14.7021 2.30683 14.7021H0.353703C0.1094 14.7019 -0.0610205 14.4598 0.0206948 14.2295L4.98554 0.235352C5.03569 0.0941885 5.1697 0 5.31952 0H7.78437ZM6.52167 2.59766C6.50048 2.59766 6.48148 2.61174 6.4748 2.63184L4.58027 8.41016C4.50521 8.63905 4.67531 8.87402 4.9162 8.87402H6.1955C6.18933 8.88834 6.18573 8.90432 6.18573 8.9209V9.39258C6.18577 9.45772 6.23875 9.51074 6.3039 9.51074H6.77558C6.84069 9.5107 6.89371 9.45769 6.89374 9.39258V8.9209C6.89374 8.90424 6.88922 8.88839 6.883 8.87402H8.11737C8.35788 8.87382 8.52794 8.63886 8.45331 8.41016L7.58124 5.73633L6.56855 2.63184C6.56197 2.61174 6.54279 2.59781 6.52167 2.59766Z" fill="#675DFF"/>
</svg>
