<svg viewBox="0 0 17 17" fill="none" xmlns="http://www.w3.org/2000/svg">
<path fill-rule="evenodd" clip-rule="evenodd" d="M8.57417 12.0368C10.5685 12.0368 12.1852 10.4201 12.1852 8.42576C12.1852 6.43145 10.5685 4.81473 8.57417 4.81473C6.57985 4.81473 4.96313 6.43145 4.96313 8.42576C4.96313 10.4201 6.57985 12.0368 8.57417 12.0368ZM10.9815 8.42576C10.9815 9.75528 9.90369 10.8331 8.57417 10.8331C7.24465 10.8331 6.16681 9.75528 6.16681 8.42576C6.16681 7.09624 7.24465 6.01841 8.57417 6.01841C9.90369 6.01841 10.9815 7.09624 10.9815 8.42576Z" fill="#675DFF"/>
<path fill-rule="evenodd" clip-rule="evenodd" d="M0.148438 7.82366V9.02734C0.148438 9.95911 0.85416 10.726 1.76022 10.8226C1.83712 11.0413 1.92423 11.255 2.02096 11.4634C1.42725 12.1728 1.46367 13.2308 2.13024 13.8974L2.98136 14.7485C3.63276 15.3999 4.65804 15.4496 5.3664 14.8974C5.62782 15.0272 5.8983 15.1417 6.17663 15.2396C6.27329 16.1457 7.04015 16.8515 7.97192 16.8515H9.1756C10.1071 16.8515 10.8739 16.1461 10.9708 15.2402C11.2237 15.1513 11.4702 15.0487 11.7092 14.9334C12.4153 15.447 13.4096 15.3854 14.0465 14.7485L14.8976 13.8974C15.5344 13.2606 15.5961 12.2663 15.0825 11.5602C15.1977 11.3214 15.3001 11.0752 15.389 10.8225C16.2947 10.7254 16.9999 9.95875 16.9999 9.02734V7.82366C16.9999 6.89226 16.2947 6.12563 15.389 6.02856C15.291 5.74982 15.1764 5.47898 15.0464 5.21724C15.5981 4.50891 15.5484 3.48397 14.8972 2.83274L14.046 1.98161C13.3796 1.3152 12.3219 1.27864 11.6126 1.8719C11.4038 1.77503 11.1897 1.6878 10.9707 1.6108C10.8736 0.705217 10.1069 0 9.1756 0H7.97192C7.04033 0 6.27353 0.705541 6.17669 1.61142C5.93078 1.69797 5.69099 1.79741 5.45817 1.90892C4.74916 1.27741 3.66176 1.30163 2.98179 1.98161L2.13065 2.83273C1.45068 3.51272 1.42645 4.60012 2.05798 5.30913C1.94635 5.54219 1.84682 5.78224 1.76022 6.02844C0.85416 6.12509 0.148438 6.89196 0.148438 7.82366ZM9.77744 1.80552C9.77744 1.47313 9.50799 1.20368 9.1756 1.20368H7.97192C7.63952 1.20368 7.37008 1.47313 7.37008 1.80552V2.03583C7.37008 2.32203 7.16744 2.56549 6.89258 2.64533C6.4657 2.76935 6.05834 2.93939 5.6763 3.14971C5.42558 3.28774 5.11015 3.25884 4.90777 3.05647L4.68404 2.83274C4.44901 2.5977 4.06795 2.5977 3.83291 2.83273L2.98179 3.68387C2.74675 3.9189 2.74675 4.29996 2.98179 4.53499L3.20553 4.75873C3.4079 4.96111 3.43679 5.27654 3.29877 5.52726C3.08833 5.90951 2.91822 6.31708 2.79419 6.74427C2.71438 7.01919 2.4709 7.22182 2.18466 7.22182H1.95395C1.62157 7.22182 1.35211 7.49133 1.35211 7.82366V9.02734C1.35211 9.35974 1.62157 9.62918 1.95395 9.62918H2.18466C2.4709 9.62918 2.71437 9.83188 2.79419 10.1067C2.9106 10.5077 3.06761 10.8914 3.26046 11.2531C3.39356 11.5028 3.36283 11.8137 3.16278 12.0137L2.98136 12.1952C2.74633 12.4302 2.74633 12.8112 2.98136 13.0463L3.8325 13.8974C4.06753 14.1324 4.44859 14.1324 4.68362 13.8974L4.83006 13.751C5.03476 13.5462 5.35467 13.5193 5.60639 13.6622C6.00851 13.8907 6.43952 14.0741 6.89258 14.2057C7.16744 14.2855 7.37008 14.529 7.37008 14.8152V15.046C7.37008 15.3784 7.63952 15.6478 7.97192 15.6478H9.1756C9.50799 15.6478 9.77744 15.3784 9.77744 15.046V14.8157C9.77744 14.5295 9.98013 14.286 10.2551 14.2062C10.6825 14.0821 11.0904 13.9119 11.4729 13.7013C11.7236 13.5633 12.039 13.5922 12.2414 13.7946L12.3442 13.8974C12.5792 14.1324 12.9603 14.1324 13.1953 13.8974L14.0465 13.0463C14.2815 12.8112 14.2815 12.4302 14.0465 12.1952L13.9437 12.0924C13.7413 11.89 13.7124 11.5746 13.8504 11.3238C14.0609 10.9415 14.231 10.534 14.355 10.1067C14.4348 9.83188 14.6783 9.62918 14.9646 9.62918H15.1944C15.5268 9.62918 15.7962 9.35974 15.7962 9.02734V7.82366C15.7962 7.49133 15.5268 7.22182 15.1944 7.22182H14.9646C14.6783 7.22182 14.4348 7.01919 14.355 6.74427C14.2234 6.29096 14.0399 5.85966 13.8113 5.45731C13.6683 5.2056 13.6953 4.88568 13.9 4.68099L14.046 4.53499C14.2811 4.29996 14.2811 3.9189 14.046 3.68387L13.1949 2.83273C12.9599 2.5977 12.5788 2.5977 12.3438 2.83273L12.1628 3.0137C11.9628 3.21375 11.6518 3.24449 11.4022 3.11138C11.0403 2.91841 10.6563 2.76133 10.2551 2.64488C9.98013 2.5651 9.77744 2.3216 9.77744 2.03534V1.80552Z" fill="#675DFF"/>
</svg>
