<svg width="18" height="18" viewBox="0 0 17 17" fill="none" xmlns="http://www.w3.org/2000/svg">
<path d="M10.5747 8.41139C10.3171 8.2089 9.93372 8.04662 9.43422 7.929L8.33844 7.67069C8.16201 7.62975 8.01834 7.59253 7.89849 7.55754C7.77677 7.5266 7.65872 7.48267 7.54638 7.42652C7.47713 7.39458 7.41893 7.34278 7.37917 7.27771C7.33941 7.21263 7.31988 7.13721 7.32305 7.06101C7.31963 6.97288 7.34009 6.88546 7.38229 6.80801C7.42449 6.73057 7.48684 6.66597 7.56276 6.62106C7.66373 6.55713 7.77507 6.51129 7.89179 6.48558C8.02719 6.45577 8.16556 6.44154 8.30419 6.44315C8.53521 6.43629 8.76506 6.4784 8.97864 6.56672L9.01213 6.5831C9.16638 6.65551 9.28967 6.78065 9.35978 6.93595C9.41857 7.07251 9.51567 7.18912 9.63932 7.27169C9.76297 7.35425 9.90788 7.39924 10.0566 7.40121H10.1027C10.2302 7.40134 10.3556 7.36918 10.4673 7.30774C10.579 7.2463 10.6733 7.15758 10.7414 7.04985C10.8093 6.944 10.8493 6.82266 10.8576 6.69717C10.866 6.57168 10.8424 6.44613 10.7891 6.33223C10.6549 6.04379 10.45 5.79388 10.1935 5.60568C9.89635 5.38647 9.55814 5.22926 9.19898 5.1434V4.93645C9.19898 4.73902 9.12055 4.54967 8.98095 4.41007C8.84134 4.27046 8.652 4.19203 8.45457 4.19203C8.25713 4.19203 8.06779 4.27046 7.92818 4.41007C7.78858 4.54967 7.71015 4.73902 7.71015 4.93645V5.10469C7.20469 5.18732 6.79303 5.36895 6.48409 5.64662C6.26905 5.83382 6.09762 6.06586 5.98187 6.32643C5.86612 6.58699 5.80886 6.86974 5.81412 7.15481C5.81412 7.81809 6.04861 8.31536 6.51164 8.63248C6.76399 8.80742 7.19427 8.96374 7.82553 9.10965L7.93571 9.13496L8.61238 9.28384C8.76127 9.3166 8.89154 9.34861 9.0032 9.38285C9.15205 9.42339 9.2955 9.48162 9.4305 9.5563C9.49323 9.59001 9.54534 9.64053 9.58097 9.7022C9.61661 9.76387 9.63436 9.83424 9.63223 9.90543C9.63223 10.1928 9.48707 10.3766 9.17665 10.4853C9.12373 10.5032 9.06979 10.5178 9.01511 10.5293C8.83246 10.565 8.64661 10.5817 8.46052 10.5791C8.27269 10.5822 8.08533 10.5594 7.9037 10.5114C7.7348 10.4691 7.58238 10.3773 7.46598 10.2479C7.41724 10.1866 7.37854 10.118 7.35134 10.0446C7.31274 9.94597 7.25452 9.85617 7.18021 9.78066C7.1059 9.70515 7.01703 9.6455 6.919 9.60532C6.82097 9.56515 6.7158 9.54529 6.60987 9.54693C6.50394 9.54858 6.39944 9.5717 6.30271 9.6149C6.20597 9.65811 6.119 9.72049 6.04707 9.79827C5.97514 9.87606 5.91975 9.96763 5.88423 10.0674C5.84871 10.1673 5.83382 10.2732 5.84045 10.379C5.84708 10.4847 5.8751 10.588 5.9228 10.6826C6.05429 10.9469 6.24389 11.178 6.4774 11.3585C6.8384 11.6314 7.26146 11.8104 7.70866 11.8796V12.0627C7.70866 12.2602 7.78709 12.4495 7.9267 12.5891C8.0663 12.7287 8.25565 12.8072 8.45308 12.8072C8.65051 12.8072 8.83985 12.7287 8.97946 12.5891C9.11907 12.4495 9.19749 12.2602 9.19749 12.0627V11.896C9.71859 11.8126 10.1466 11.628 10.4786 11.3444C10.706 11.1585 10.8883 10.9236 11.0121 10.6572C11.1358 10.3909 11.1978 10.1001 11.1933 9.80642C11.191 9.20419 10.9841 8.73446 10.5747 8.41139Z" fill="#083B43"/>
<path d="M8.5 16C12.6421 16 16 12.6421 16 8.5C16 4.35786 12.6421 1 8.5 1C4.35786 1 1 4.35786 1 8.5C1 12.6421 4.35786 16 8.5 16Z" stroke="#083B43" stroke-width="1.48883" stroke-linecap="round" stroke-linejoin="round"/>
</svg>
