<svg width="18" height="18" viewBox="0 0 16 17" fill="none" xmlns="http://www.w3.org/2000/svg">
<path fill-rule="evenodd" clip-rule="evenodd" d="M12.95 1.12758L14.516 2.37458C14.6672 2.51691 14.7525 2.71571 14.7513 2.92339C14.7502 3.13106 14.6628 3.32892 14.51 3.46958L13.32 4.89358L9.271 9.7226C9.2001 9.8037 9.1058 9.8607 9.001 9.8856L6.901 10.3616C6.6255 10.3754 6.3856 10.1751 6.35 9.9016V7.7436C6.3571 7.6395 6.399 7.5409 6.469 7.4636L10.443 2.97058L11.807 1.34158C12.0768 0.987859 12.5704 0.89545 12.95 1.12758Z" stroke="#414552" stroke-width="1.5" stroke-linecap="round" stroke-linejoin="round"/>
<path d="M9.58203 15.7437L9.58301 15.8452V16.2437H4.9834V15.7437H9.58203ZM1.03516 12.7437C1.25075 14.2723 2.45584 15.4836 3.9834 15.7065L3.98242 16.2095C2.17879 15.9795 0.75313 14.5483 0.53125 12.7437H1.03516ZM14.0342 12.7437C13.8122 14.5484 12.3869 15.9797 10.583 16.2095V15.7065C12.1103 15.4835 13.3146 14.2722 13.5303 12.7437H14.0342ZM10.5166 12.9321V13.4321H4.0498V12.9321H10.5166ZM14.0664 8.99365V11.7427L13.8145 11.7437H13.5664V8.99365H14.0664ZM1 7.11865V11.7437H0.750977L0.5 11.7427V7.11865H1ZM3.9834 2.87451V3.15479C2.45609 3.37761 1.25113 4.58942 1.03516 6.11768L0.749023 6.11865H0.53125C0.753132 4.31396 2.17873 2.88173 3.98242 2.65186L3.9834 2.87451ZM10.9023 3.32178C11.0389 3.54884 11.2158 3.791 11.4297 4.00732L11.5928 4.16064C11.9237 4.44857 12.315 4.65379 12.7627 4.68408L12.874 5.18799C12.3317 5.18754 11.8599 4.98761 11.4717 4.70361L11.2646 4.5376C10.9099 4.22892 10.6327 3.85358 10.4365 3.51416L10.9023 3.32178ZM6.7832 2.61865V3.11865H4.9834V2.61865H6.7832Z" fill="black" stroke="#414552"/>
</svg>
