<svg width="18" height="18" viewBox="0 0 15 15" fill="none" xmlns="http://www.w3.org/2000/svg">
<path d="M4.51677 14.2741C4.51677 14.675 4.84172 14.9999 5.24259 14.9999C5.64343 14.9999 5.9684 14.675 5.9684 14.2741H4.51677ZM9.0342 14.2741C9.0342 14.675 9.35917 14.9999 9.76001 14.9999C10.1608 14.9999 10.4858 14.675 10.4858 14.2741H9.0342ZM5.24259 14.9999C5.64343 14.9999 5.9684 14.675 5.9684 14.2741C5.9684 13.8733 5.64343 13.5483 5.24259 13.5483V14.9999ZM2.98386 14.2741L2.97647 14.9999H2.98386V14.2741ZM1.01741 12.5835L0.292108 12.6104C0.293211 12.6403 0.296173 12.6701 0.300963 12.6997L1.01741 12.5835ZM0.757089 5.55866L1.4824 5.53178C1.48117 5.49859 1.47766 5.46552 1.4719 5.43281L0.757089 5.55866ZM1.83322 3.37931L1.50324 2.73283L1.49857 2.73525L1.83322 3.37931ZM6.60904 0.941565L6.93904 1.58803L6.9405 1.58726L6.60904 0.941565ZM8.39453 0.941565L8.06308 1.58726L8.06453 1.58803L8.39453 0.941565ZM13.1703 3.37931L13.505 2.73524L13.5003 2.73285L13.1703 3.37931ZM14.2465 5.55866L13.5316 5.43281C13.5259 5.46549 13.5224 5.49853 13.5211 5.53168L14.2465 5.55866ZM13.9852 12.5835L14.7016 12.6997C14.7064 12.6702 14.7093 12.6404 14.7105 12.6105L13.9852 12.5835ZM12.0187 14.2741V15L12.0261 14.9999L12.0187 14.2741ZM9.76001 13.5483C9.35917 13.5483 9.0342 13.8733 9.0342 14.2741C9.0342 14.675 9.35917 14.9999 9.76001 14.9999V13.5483ZM5.24259 13.5483C4.84172 13.5483 4.51677 13.8733 4.51677 14.2741C4.51677 14.675 4.84172 14.9999 5.24259 14.9999V13.5483ZM9.76001 14.9999C10.1608 14.9999 10.4858 14.675 10.4858 14.2741C10.4858 13.8733 10.1608 13.5483 9.76001 13.5483V14.9999ZM5.9684 14.2741V12.0164H4.51677V14.2741H5.9684ZM5.9684 12.0164C5.9684 11.1698 6.65472 10.4835 7.5013 10.4835V9.03184C5.85295 9.03184 4.51677 10.3681 4.51677 12.0164H5.9684ZM7.5013 10.4835C8.34788 10.4835 9.0342 11.1698 9.0342 12.0164H10.4858C10.4858 10.3681 9.14956 9.03184 7.5013 9.03184V10.4835ZM9.0342 12.0164V14.2741H10.4858V12.0164H9.0342ZM5.24259 13.5483H2.98386V14.9999H5.24259V13.5483ZM2.99126 13.5484C2.36491 13.542 1.83412 13.0856 1.73387 12.4673L0.300963 12.6997C0.514273 14.0153 1.64372 14.9864 2.97647 14.9999L2.99126 13.5484ZM1.74272 12.5566L1.4824 5.53178L0.0317859 5.58552L0.292108 12.6104L1.74272 12.5566ZM1.4719 5.43281C1.3713 4.86143 1.65305 4.29085 2.16786 4.02336L1.49857 2.73525C0.421331 3.29498 -0.168217 4.48892 0.0422761 5.68452L1.4719 5.43281ZM2.1632 4.02577L6.93904 1.58803L6.27904 0.295104L1.50324 2.73283L2.1632 4.02577ZM6.9405 1.58726C7.29285 1.4064 7.71072 1.4064 8.06308 1.58726L8.72598 0.295868C7.95749 -0.0986226 7.04608 -0.0986226 6.27759 0.295868L6.9405 1.58726ZM8.06453 1.58803L12.8403 4.02577L13.5003 2.73285L8.72453 0.295104L8.06453 1.58803ZM12.8357 4.02336C13.3505 4.29085 13.6322 4.86143 13.5316 5.43281L14.9612 5.68452C15.1717 4.48892 14.5822 3.29497 13.505 2.73524L12.8357 4.02336ZM13.5211 5.53168L13.2598 12.5565L14.7105 12.6105L14.9718 5.58561L13.5211 5.53168ZM13.2688 12.4673C13.1685 13.0856 12.6377 13.542 12.0113 13.5484L12.0261 14.9999C13.3589 14.9864 14.4883 14.0153 14.7016 12.6997L13.2688 12.4673ZM12.0187 13.5483H9.76001V14.9999L12.0187 15V13.5483ZM5.24259 14.9999H9.76001V13.5483H5.24259V14.9999Z" fill="#414552"/>
</svg>
