<svg viewBox="0 0 17 17" fill="none" xmlns="http://www.w3.org/2000/svg">
<path d="M8.64801 16.0738C12.8719 16.0738 16.296 12.6497 16.296 8.42584C16.296 4.20196 12.8719 0.777832 8.64801 0.777832C4.42413 0.777832 1 4.20196 1 8.42584C1 12.6497 4.42413 16.0738 8.64801 16.0738Z" stroke="#675DFF" stroke-width="1.24022" stroke-linecap="round" stroke-linejoin="round"/>
<path d="M8.80237 4.73169C8.83209 4.74428 8.8598 4.76113 8.8844 4.78149L8.94885 4.85376C8.98383 4.90649 9.0026 4.96818 9.00354 5.03149C9.00119 5.09835 8.98049 5.16277 8.94299 5.21704L8.89905 5.2688C8.83461 5.33113 8.7483 5.36502 8.65881 5.36548C8.62776 5.3641 8.59715 5.35966 8.56799 5.34985L8.48206 5.30591C8.45579 5.28724 8.43233 5.26469 8.41272 5.2395L8.36487 5.15552C8.35314 5.12511 8.34577 5.09295 8.34338 5.06079L8.35022 4.96509C8.35717 4.93354 8.36882 4.90319 8.3844 4.87524L8.44299 4.79907C8.46643 4.77639 8.49344 4.75719 8.52209 4.74243L8.61292 4.71118C8.64494 4.70522 8.67755 4.70376 8.70959 4.70728L8.80237 4.73169ZM8.47522 7.50415C8.47465 7.48192 8.47806 7.45997 8.48596 7.4397L8.52209 7.38403H8.52307L8.57776 7.34692L8.64221 7.33423H8.64905L8.71057 7.34692L8.76233 7.38306C8.77693 7.39829 8.78893 7.41667 8.79651 7.43677C8.80376 7.45618 8.80721 7.47712 8.80627 7.49829L8.8053 7.50708V11.9651C8.80524 11.9867 8.79992 12.0085 8.79163 12.0286L8.75745 12.0813L8.70374 12.1174C8.68358 12.1258 8.66191 12.1301 8.64026 12.1301L8.57678 12.1174L8.52307 12.0813L8.48792 12.0286V12.0276L8.47522 11.9651V7.50415Z" fill="#675DFF" stroke="#675DFF" stroke-width="0.826811"/>
</svg>
