<svg viewBox="0 0 17 16" fill="none" xmlns="http://www.w3.org/2000/svg">
<path fill-rule="evenodd" clip-rule="evenodd" d="M2.51656 1.17467C2.87651 0.45475 3.61232 0 4.41721 0H12.5827C13.3877 0 14.1235 0.45476 14.4834 1.17467L16.7757 5.75913C16.9232 6.05417 17 6.37953 17 6.70943V13.4583C17 14.6319 16.0486 15.5833 14.875 15.5833H2.125C0.951396 15.5833 0 14.6319 0 13.4583V6.70943C0 6.37953 0.0768117 6.05417 0.224343 5.75913L2.51656 1.17467ZM15.5833 7.20422C15.3618 7.12593 15.1234 7.08333 14.875 7.08333H12.641C11.4366 7.08333 10.6513 8.08567 10.2622 8.82347C10.1696 8.99933 10.0532 9.1613 9.91582 9.30419C9.53539 9.69982 9.02549 9.91667 8.5 9.91667C7.97451 9.91667 7.46461 9.69982 7.08418 9.30419C6.94677 9.1613 6.83041 8.99933 6.73776 8.82347C6.34878 8.08567 5.56343 7.08333 4.35898 7.08333H2.125C1.87663 7.08333 1.63821 7.12593 1.41667 7.20422V6.70943C1.41667 6.59949 1.44227 6.49098 1.49145 6.39266L3.78366 1.80822C3.90364 1.56825 4.14892 1.41667 4.41721 1.41667H12.5827C12.8511 1.41667 13.0963 1.56825 13.2164 1.80822L15.5085 6.39266C15.5577 6.49098 15.5833 6.59949 15.5833 6.70943V7.20422Z" fill="#3A52EE"/>
</svg>
