<svg width="18" height="18" viewBox="0 0 16 18" fill="none" xmlns="http://www.w3.org/2000/svg">
<path fill-rule="evenodd" clip-rule="evenodd" d="M9.75 8.25C9.75 9.3546 8.8546 10.25 7.75 10.25C6.6454 10.25 5.75 9.3546 5.75 8.25C5.75 7.1454 6.6454 6.25 7.75 6.25C8.8546 6.25 9.75 7.1454 9.75 8.25Z" stroke="#414552" stroke-width="1.5" stroke-linecap="round" stroke-linejoin="round"/>
<path d="M10.25 16.5V17H5.25V16.5H10.25ZM2.86621 15.9922C3.28317 16.235 3.75092 16.3993 4.25 16.4658V16.9697C3.58124 16.8913 2.96064 16.6576 2.42383 16.3057L2.49805 16.251C2.61877 16.1608 2.74214 16.0754 2.86621 15.9922ZM12.6328 15.9922C12.7571 16.0755 12.881 16.1606 13.002 16.251L13.0752 16.3057C12.5385 16.6573 11.9185 16.8914 11.25 16.9697V16.4658C11.7488 16.3993 12.216 16.2347 12.6328 15.9922ZM2.5625 14.4121C5.76256 12.5382 9.73637 12.5385 12.9365 14.4121C12.833 14.5481 12.7175 14.6736 12.5908 14.7881C9.59421 13.0781 5.90468 13.0778 2.9082 14.7881C2.78164 14.6736 2.66599 14.5481 2.5625 14.4121ZM1.03418 13.25C1.07213 13.5348 1.14112 13.8095 1.23926 14.0703L1.00195 14.249L0.824219 14.3809C0.676523 14.0257 0.576709 13.6461 0.530273 13.25H1.03418ZM14.9697 13.25C14.9233 13.6463 14.8226 14.0256 14.6748 14.3809L14.498 14.249L14.2598 14.0703C14.358 13.8094 14.4279 13.5349 14.4658 13.25H14.9697ZM15 7.25V12.25H14.5V7.25H15ZM1 7.25V12.25H0.5V7.25H1ZM11.25 2.5293C13.1976 2.75754 14.7414 4.30248 14.9697 6.25H14.4658C14.2431 4.57896 12.921 3.25586 11.25 3.0332V2.5293ZM4.25 3.0332C2.57895 3.25586 1.25689 4.57896 1.03418 6.25H0.530273C0.758574 4.30248 2.30247 2.75755 4.25 2.5293V3.0332ZM8.5 2.5V3H7V2.5H8.5ZM10 1.25V1.5H9.5V1.25H10ZM6 1.25V1.5H5.5V1.25H6Z" fill="black" stroke="#414552"/>
</svg>
